<svg width="46" height="73" viewBox="0 0 46 73" fill="none" xmlns="http://www.w3.org/2000/svg">
<path d="M45.0954 39.6823V34.6506C45.0954 33.6754 45.0176 32.7003 44.8229 31.8032C44.4726 30.1259 43.8108 28.5267 42.8376 27.0445C41.3194 24.7432 39.3341 22.9489 36.8427 21.5837C36.7259 21.5447 36.6091 21.4667 36.5313 21.3887C34.1177 20.1405 31.5096 19.5164 28.7068 19.5164C25.904 19.5164 23.2958 20.1405 20.8823 21.3887C20.7655 21.4667 20.6098 21.5447 20.493 21.5837C18.0016 22.9879 16.0163 24.8212 14.537 27.1225C13.0578 29.4238 12.3571 31.9202 12.3571 34.6116V39.6433C12.3571 41.6716 13.6806 44.87 13.6806 44.87C14.4981 46.8203 15.7438 48.6536 17.3398 50.2138C17.6512 50.5258 17.9237 50.7989 18.1184 51.1109C18.7023 51.93 18.9359 52.7882 18.8191 53.8803C18.6244 55.7526 19.0916 57.3908 20.9212 58.366C20.1426 59.6141 19.948 60.8233 20.6487 62.1495C20.8044 62.4225 20.5708 62.8906 20.4151 63.2417C20.2205 63.8267 20.1426 64.4508 20.2205 64.9969C20.2983 65.777 20.6876 66.4011 21.3494 66.7132C22.6729 67.2982 23.3347 68.3124 23.9965 69.3655C24.1133 69.5606 24.2301 69.7556 24.3468 69.9506C24.6193 70.3797 25.0865 70.7697 25.5147 71.0428C28.2007 72.915 31.6653 72.1739 33.3781 69.3655C33.417 69.3265 33.417 69.2875 33.456 69.2485C34.001 68.2734 34.4681 67.3763 35.7138 66.9472C36.687 66.5961 37.1541 65.66 37.193 64.6069C37.193 64.0998 37.1152 63.5927 36.9206 63.0856C36.8038 62.7736 36.6091 62.3445 36.7259 62.1105C37.4655 60.7843 37.193 59.5361 36.5313 58.288C38.4387 57.2738 38.7891 55.5966 38.6334 53.7243C38.5555 52.6321 38.7502 51.774 39.373 50.9159C39.5287 50.6819 39.7234 50.4868 39.9569 50.2528C41.2026 49.0826 42.2537 47.7564 43.0322 46.3913C43.8886 44.87 44.4726 43.2708 44.784 41.5156L45.0954 39.6823ZM17.6123 34.8846C17.5734 35.1186 17.6512 35.3917 17.5345 35.5477C17.223 35.9378 16.8338 36.2888 16.4445 36.6399C16.1331 36.2108 15.5881 35.8207 15.5491 35.3917C15.4713 34.5726 15.627 33.6754 15.7827 32.8563C16.8727 27.3955 22.0112 23.1439 28.045 23.0659C28.2007 23.2219 28.9014 23.534 29.0182 24.0021C29.2128 24.7822 28.5511 25.1332 27.7725 25.1722C22.0501 25.6013 18.352 29.1508 17.6123 34.8846ZM30.4585 69.4045C29.4075 70.1456 28.1228 70.1456 27.0718 69.4045C26.6825 69.1315 26.3322 68.7414 26.0207 68.2734H31.4706C31.1982 68.7414 30.8478 69.1315 30.4585 69.4045ZM33.6117 65.348C30.3807 65.348 27.1497 65.387 23.9186 65.309C23.3736 65.309 22.4394 64.8019 22.4394 64.4508C22.3615 63.4367 23.2958 63.5147 23.9965 63.5147C25.6315 63.5147 27.2275 63.5147 28.8625 63.5147C30.4196 63.5147 32.0156 63.4367 33.5728 63.5537C34.1177 63.5927 35.0131 64.0608 35.052 64.4118C35.1688 65.309 34.3124 65.348 33.6117 65.348ZM33.7674 61.3304C32.0546 61.4474 30.3417 61.3694 28.6289 61.3694C26.955 61.3694 25.2811 61.4474 23.6461 61.3304C23.179 61.2914 22.7508 60.7843 22.3226 60.5113C22.7508 60.1992 23.2179 59.6141 23.6851 59.6141C27.0718 59.5361 30.4196 59.5361 33.8063 59.6141C34.2345 59.6141 34.7017 60.1602 35.1299 60.4333C34.6627 60.7453 34.2345 61.3304 33.7674 61.3304Z" fill="#67257A"/>
<path d="M31.7432 12.8465C31.4317 13.4706 30.8867 13.8606 30.1082 14.0167C29.2907 14.1727 28.59 14.1337 28.0061 13.8216C27.2275 13.4316 26.8382 12.8465 26.7993 12.0274L26.6047 2.00294C26.6436 1.69089 26.7215 1.45686 26.8382 1.22282C27.1497 0.55973 27.6947 0.169674 28.4732 0.0526575C29.2518 -0.0643592 29.9525 0.0136521 30.5364 0.286691C31.3539 0.676747 31.7821 1.30084 31.7821 2.15896L31.9378 11.9494C31.9378 12.1054 31.8989 12.2614 31.8599 12.4174C31.8599 12.5734 31.821 12.7295 31.7432 12.8465Z" fill="#67257A"/>
<path d="M16.3666 15.3819C16.8727 15.8109 17.5345 15.9279 18.3519 15.7719C19.1694 15.6159 19.7534 15.2648 20.2205 14.7188C20.7655 14.0557 20.8823 13.3536 20.6098 12.5735L16.6391 3.36814C16.4834 3.0951 16.3277 2.90007 16.1331 2.74405C15.5881 2.27598 14.9263 2.15897 14.1477 2.354C13.3692 2.54902 12.7853 2.90007 12.3571 3.44615C11.7731 4.14825 11.6564 4.88936 12.0067 5.66947L15.8606 14.6408C15.9384 14.7578 16.0163 14.9138 16.0941 15.0308C16.172 15.1868 16.2498 15.3038 16.3666 15.3819Z" fill="#67257A"/>
<path d="M8.77569 22.2468C9.43747 22.4029 10.0603 22.2468 10.7221 21.7398C11.3839 21.2327 11.7731 20.6476 11.9678 20.0235C12.2013 19.2044 12.0067 18.5023 11.3839 17.9172L3.94864 11.2863C3.67614 11.1302 3.44257 11.0132 3.20901 10.9352C2.5083 10.7402 1.84653 10.9352 1.26261 11.4423C0.639765 11.9494 0.250486 12.5344 0.0947749 13.1975C-0.138792 14.0947 0.0558472 14.7968 0.717621 15.3818L8.03606 21.8568C8.15285 21.9348 8.26963 22.0128 8.42534 22.0908C8.5032 22.1688 8.65891 22.2078 8.77569 22.2468Z" fill="#67257A"/>
</svg>